<svg xmlns="http://www.w3.org/2000/svg" viewBox="0 -960 960 960" data-animation="people" fill="currentColor"><g data-part="glyph"><g data-part="personRight" style="transform-box: fill-box; transform-origin: 50% 100%"><path d="M760.0000 -160.0000v-120q0-44-24.5-84.5T666-434q51 6 96 20.5t84 35.5q36 20 55 44.5t19 53.5v120H760ZM713.0000 -527.0000q-47 47-113 47-11 0-28-2.5t-28-5.5q27-32 41.5-71t14.5-81q0-42-14.5-81T544-792q14-5 28-6.5t28-1.5q66 0 113 47t47 113q0 66-47 113Z"/></g><g data-part="personLeft" style="transform-box: fill-box; transform-origin: 50% 100%"><path d="M40.0000 -160.0000v-112q0-34 17.5-62.5T104-378q62-31 126-46.5T360-440q66 0 130 15.5T616-378q29 15 46.5 43.5T680-272v112H40ZM120.0000 -240.0000h480v-32q0-11-5.5-20T580-306q-54-27-109-40.5T360-360q-56 0-111 13.5T140-306q-9 5-14.5 14t-5.5 20v32ZM247.0000 -527.0000q-47-47-47-113t47-113q47-47 113-47t113 47q47 47 47 113t-47 113q-47 47-113 47t-113-47ZM416.5000 -583.5000Q440-607 440-640t-23.5-56.5Q393-720 360-720t-56.5 23.5Q280-673 280-640t23.5 56.5Q327-560 360-560t56.5-23.5ZM360.0000 -240.0000ZM360.0000 -640.0000Z"/></g></g></svg>
