<svg xmlns="http://www.w3.org/2000/svg" viewBox="0 -960 960 960" data-animation="event" fill="currentColor"><g data-part="glyph"><g data-part="calendar"><path d="M200.0000 -80.0000q-33 0-56.5-23.5T120-160v-560q0-33 23.5-56.5T200-800h40v-80h80v80h320v-80h80v80h40q33 0 56.5 23.5T840-720v560q0 33-23.5 56.5T760-80H200ZM200.0000 -160.0000h560v-400H200v400ZM200.0000 -640.0000h560v-80H200v80ZM200.0000 -640.0000v-80 80Z"/></g><g data-part="dateBlock"><path d="M509.0000 -269.0000q-29-29-29-71t29-71q29-29 71-29t71 29q29 29 29 71t-29 71q-29 29-71 29t-71-29Z"/></g></g></svg>
