<svg xmlns="http://www.w3.org/2000/svg" viewBox="0 -960 960 960" data-animation="list" fill="currentColor"><g data-part="glyph"><g data-part="rowTop"><path d="M280.0000 -600.0000v-80h560v80H280ZM160.0000 -600.0000q-17 0-28.5-11.5T120-640q0-17 11.5-28.5T160-680q17 0 28.5 11.5T200-640q0 17-11.5 28.5T160-600Z"/></g><g data-part="rowMid"><path d="M280.0000 -440.0000v-80h560v80H280ZM160.0000 -440.0000q-17 0-28.5-11.5T120-480q0-17 11.5-28.5T160-520q17 0 28.5 11.5T200-480q0 17-11.5 28.5T160-440Z"/></g><g data-part="rowBottom"><path d="M280.0000 -280.0000v-80h560v80H280ZM160.0000 -280.0000q-17 0-28.5-11.5T120-320q0-17 11.5-28.5T160-360q17 0 28.5 11.5T200-320q0 17-11.5 28.5T160-280Z"/></g></g></svg>
