<svg xmlns="http://www.w3.org/2000/svg" viewBox="0 -960 960 960" data-animation="face" fill="currentColor"><g data-part="glyph"><g data-part="faceBody"><path d="M480.0000 -160.0000q134 0 227-93t93-227q0-24-3-46.5T786-570q-21 5-42 7.5t-44 2.5q-91 0-172-39T390-708q-32 78-91.5 135.5T160-486v6q0 134 93 227t227 93ZM480.0000 -80.0000q-83 0-156-31.5T197-197q-54-54-85.5-127T80-480q0-83 31.5-156T197-763q54-54 127-85.5T480-880q83 0 156 31.5T763-763q54 54 85.5 127T880-480q0 83-31.5 156T763-197q-54 54-127 85.5T480-80ZM426.0000 -795.0000q42 70 114 112.5T700-640q14 0 27-1.5t27-3.5q-42-70-114-112.5T480-800q-14 0-27 1.5t-27 3.5ZM177.0000 -581.0000q51-29 89-75t57-103q-51 29-89 75t-57 103ZM426.0000 -795.0000ZM323.0000 -759.0000Z"/></g><g data-part="eyeLeft" style="transform-box: fill-box; transform-origin: 50% 50%"><path d="M324.5000 -404.5000Q310-419 310-440t14.5-35.5Q339-490 360-490t35.5 14.5Q410-461 410-440t-14.5 35.5Q381-390 360-390t-35.5-14.5Z"/></g><g data-part="eyeRight" style="transform-box: fill-box; transform-origin: 50% 50%"><path d="M564.5000 -404.5000Q550-419 550-440t14.5-35.5Q579-490 600-490t35.5 14.5Q650-461 650-440t-14.5 35.5Q621-390 600-390t-35.5-14.5Z"/></g></g></svg>