<svg xmlns="http://www.w3.org/2000/svg" viewBox="0 -960 960 960" data-animation="shopping-cart" fill="currentColor"><g data-part="glyph"><g data-part="basket"><path d="M208.0000 -800.0000h590q23 0 35 20.5t1 41.5L692-482q-11 20-29.5 31T622-440H324l-44 80h480v80H280q-45 0-68-39.5t-2-78.5l54-98-144-304H40v-80h130l38 80ZM246.0000 -720.0000l96 200h280l110-200H246ZM342.0000 -520.0000h280-280Z"/></g><g data-part="wheelBack"><path d="M223.5000 -103.5000Q200-127 200-160t23.5-56.5Q247-240 280-240t56.5 23.5Q360-193 360-160t-23.5 56.5Q313-80 280-80t-56.5-23.5Z"/></g><g data-part="wheelFront"><path d="M623.5000 -103.5000Q600-127 600-160t23.5-56.5Q647-240 680-240t56.5 23.5Q760-193 760-160t-23.5 56.5Q713-80 680-80t-56.5-23.5Z"/></g></g></svg>
