<svg xmlns="http://www.w3.org/2000/svg" viewBox="0 -960 960 960" data-animation="more-vert" fill="currentColor"><g data-part="glyph"><g data-part="dotTop"><path d="M480.0000 -640.0000q-33 0-56.5-23.5T400-720q0-33 23.5-56.5T480-800q33 0 56.5 23.5T560-720q0 33-23.5 56.5T480-640Z"/></g><g data-part="dotMiddle"><path d="M480.0000 -400.0000q-33 0-56.5-23.5T400-480q0-33 23.5-56.5T480-560q33 0 56.5 23.5T560-480q0 33-23.5 56.5T480-400Z"/></g><g data-part="dotBottom"><path d="M480.0000 -160.0000q-33 0-56.5-23.5T400-240q0-33 23.5-56.5T480-320q33 0 56.5 23.5T560-240q0 33-23.5 56.5T480-160Z"/></g></g></svg>