<svg xmlns="http://www.w3.org/2000/svg" viewBox="0 -960 960 960" data-animation="groups" fill="currentColor"><g data-part="glyph"><g data-part="crowd"><path d="M0.0000 -240.0000v-63q0-43 44-70t116-27q13 0 25 .5t23 2.5q-14 21-21 44t-7 48v65H0ZM780.0000 -240.0000v-65q0-26-6.5-49T754-397q11-2 22.5-2.5t23.5-.5q72 0 116 26.5t44 70.5v63H780ZM160.0000 -440.0000q-33 0-56.5-23.5T80-520q0-34 23.5-57t56.5-23q34 0 57 23t23 57q0 33-23 56.5T160-440ZM800.0000 -440.0000q-33 0-56.5-23.5T720-520q0-34 23.5-57t56.5-23q34 0 57 23t23 57q0 33-23 56.5T800-440ZM481.0000 -320.0000ZM480.0000 -600.0000Z"/></g><g data-part="centerFigure" style="transform-box: fill-box; transform-origin: 50% 50%"><path d="M240.0000 -240.0000v-65q0-32 17.5-58.5T307-410q32-20 76.5-30t96.5-10q53 0 97.5 10t76.5 30q32 20 49 46.5t17 58.5v65H240ZM325.0000 -320.0000h311q-10-20-55.5-35T480-370q-55 0-100.5 15T325-320ZM480.0000 -480.0000q-50 0-85-35t-35-85q0-51 35-85.5t85-34.5q51 0 85.5 34.5T600-600q0 50-34.5 85T480-480ZM480.0000 -560.0000q17 0 28.5-11.5T520-600q0-17-11.5-28.5T480-640q-17 0-28.5 11.5T440-600q0 17 11.5 28.5T480-560Z"/></g></g></svg>