<svg xmlns="http://www.w3.org/2000/svg" viewBox="0 -960 960 960" data-animation="schedule" fill="currentColor"><g data-part="glyph"><g data-part="dial"><path d="M480.0000 -80.0000q-83 0-156-31.5T197-197q-54-54-85.5-127T80-480q0-83 31.5-156T197-763q54-54 127-85.5T480-880q83 0 156 31.5T763-763q54 54 85.5 127T880-480q0 83-31.5 156T763-197q-54 54-127 85.5T480-80ZM480.0000 -480.0000ZM480.0000 -160.0000q133 0 226.5-93.5T800-480q0-133-93.5-226.5T480-800q-133 0-226.5 93.5T160-480q0 133 93.5 226.5T480-160Z"/></g><g data-part="hands" style="transform-box: fill-box; transform-origin: 17.5% 51.55%"><path d="M612.0000 -292.0000l56 -56l-148 -148v-184h-80v216l172 172Z"/></g></g></svg>